<svg width="132" height="72" viewBox="0 0 132 72" fill="none" xmlns="http://www.w3.org/2000/svg">
<path d="M6 72V60H126V72H6ZM12.9 35.7L5.1 31.2L10.2 22.2H0V13.2H10.2L5.1 4.5L12.9 0L18 8.7L23.1 0L30.9 4.5L25.8 13.2H36V22.2H25.8L30.9 31.2L23.1 35.7L18 26.7L12.9 35.7ZM60.9 35.7L53.1 31.2L58.2 22.2H48V13.2H58.2L53.1 4.5L60.9 0L66 8.7L71.1 0L78.9 4.5L73.8 13.2H84V22.2H73.8L78.9 31.2L71.1 35.7L66 26.7L60.9 35.7ZM108.9 35.7L101.1 31.2L106.2 22.2H96V13.2H106.2L101.1 4.5L108.9 0L114 8.7L119.1 0L126.9 4.5L121.8 13.2H132V22.2H121.8L126.9 31.2L119.1 35.7L114 26.7L108.9 35.7Z" fill="#1E3A5F"/>
</svg>
