<svg width="72" height="73" viewBox="0 0 72 73" fill="none" xmlns="http://www.w3.org/2000/svg">
<path d="M30.96 53.06L56.34 27.68L51.3 22.64L30.96 42.98L20.7 32.72L15.66 37.76L30.96 53.06ZM36 72.5C31.02 72.5 26.34 71.555 21.96 69.665C17.58 67.775 13.77 65.21 10.53 61.97C7.29 58.73 4.725 54.92 2.835 50.54C0.945 46.16 0 41.48 0 36.5C0 31.52 0.945 26.84 2.835 22.46C4.725 18.08 7.29 14.27 10.53 11.03C13.77 7.79 17.58 5.225 21.96 3.335C26.34 1.445 31.02 0.5 36 0.5C40.98 0.5 45.66 1.445 50.04 3.335C54.42 5.225 58.23 7.79 61.47 11.03C64.71 14.27 67.275 18.08 69.165 22.46C71.055 26.84 72 31.52 72 36.5C72 41.48 71.055 46.16 69.165 50.54C67.275 54.92 64.71 58.73 61.47 61.97C58.23 65.21 54.42 67.775 50.04 69.665C45.66 71.555 40.98 72.5 36 72.5ZM36 65.3C44.04 65.3 50.85 62.51 56.43 56.93C62.01 51.35 64.8 44.54 64.8 36.5C64.8 28.46 62.01 21.65 56.43 16.07C50.85 10.49 44.04 7.7 36 7.7C27.96 7.7 21.15 10.49 15.57 16.07C9.99 21.65 7.2 28.46 7.2 36.5C7.2 44.54 9.99 51.35 15.57 56.93C21.15 62.51 27.96 65.3 36 65.3Z" fill="#1E3A5F"/>
</svg>
