<svg width="76" height="72" viewBox="0 0 76 72" fill="none" xmlns="http://www.w3.org/2000/svg">
<path d="M65.4879 49.6364L60.0267 44C62.4539 43.3333 64.426 42.0455 65.943 40.1364C67.4599 38.2273 68.2184 36 68.2184 33.4545C68.2184 30.4242 67.1565 27.8485 65.0328 25.7273C62.909 23.6061 60.3301 22.5455 57.2961 22.5455H42.733V15.2727H57.2961C62.3325 15.2727 66.6256 17.0455 70.1754 20.5909C73.7251 24.1364 75.5 28.4242 75.5 33.4545C75.5 36.9091 74.605 40.0909 72.8149 43C71.0249 45.9091 68.5825 48.1212 65.4879 49.6364ZM53.1092 37.0909L45.8277 29.8182H53.6553V37.0909H53.1092ZM67.4903 72L0.5 5.09091L5.59709 0L72.5874 66.9091L67.4903 72ZM35.4515 51.6364H20.8883C15.8519 51.6364 11.5589 49.8636 8.0091 46.3182C4.45934 42.7727 2.68447 38.4848 2.68447 33.4545C2.68447 29.2727 3.95874 25.5455 6.50728 22.2727C9.05583 19 12.3325 16.8485 16.3374 15.8182L23.0728 22.5455H20.8883C17.8544 22.5455 15.2755 23.6061 13.1517 25.7273C11.0279 27.8485 9.96602 30.4242 9.96602 33.4545C9.96602 36.4848 11.0279 39.0606 13.1517 41.1818C15.2755 43.303 17.8544 44.3636 20.8883 44.3636H35.4515V51.6364ZM24.5291 37.0909V29.8182H30.4454L37.6359 37.0909H24.5291Z" fill="#1E3A5F"/>
</svg>
