<svg width="90" height="73" viewBox="0 0 90 73" fill="none" xmlns="http://www.w3.org/2000/svg">
<path d="M9 72.5C6.525 72.5 4.40625 71.6188 2.64375 69.8562C0.88125 68.0938 0 65.975 0 63.5V9.5C0 7.025 0.88125 4.90625 2.64375 3.14375C4.40625 1.38125 6.525 0.5 9 0.5H81C83.475 0.5 85.5938 1.38125 87.3562 3.14375C89.1187 4.90625 90 7.025 90 9.5V63.5C90 65.975 89.1187 68.0938 87.3562 69.8562C85.5938 71.6188 83.475 72.5 81 72.5H9ZM45 41L9 18.5V63.5H81V18.5L45 41ZM45 32L81 9.5H9L45 32ZM9 18.5V9.5V63.5V18.5Z" fill="#1E3A5F"/>
</svg>
